<?xml version="1.0" encoding="UTF-8" standalone="no"?>
<!-- Created with Inkscape (http://www.inkscape.org/) -->

<svg
   xmlns:dc="http://purl.org/dc/elements/1.1/"
   xmlns:cc="http://creativecommons.org/ns#"
   xmlns:rdf="http://www.w3.org/1999/02/22-rdf-syntax-ns#"
   xmlns:svg="http://www.w3.org/2000/svg"
   xmlns="http://www.w3.org/2000/svg"
   xmlns:sodipodi="http://sodipodi.sourceforge.net/DTD/sodipodi-0.dtd"
   xmlns:inkscape="http://www.inkscape.org/namespaces/inkscape"
   width="8.387989mm"
   height="8.0112667mm"
   viewBox="0 0 8.387989 8.0112667"
   version="1.1"
   id="svg8"
   inkscape:version="0.92.4 (5da689c313, 2019-01-14)"
   sodipodi:docname="favicon_xumi.svg">
  <defs
     id="defs2" />
  <sodipodi:namedview
     id="base"
     pagecolor="#ffffff"
     bordercolor="#666666"
     borderopacity="1.0"
     inkscape:pageopacity="0.0"
     inkscape:pageshadow="2"
     inkscape:zoom="1.979899"
     inkscape:cx="63.151724"
     inkscape:cy="-72.921161"
     inkscape:document-units="mm"
     inkscape:current-layer="layer1"
     showgrid="false"
     inkscape:window-width="1920"
     inkscape:window-height="1001"
     inkscape:window-x="-9"
     inkscape:window-y="-9"
     inkscape:window-maximized="1" />
  <metadata
     id="metadata5">
    <rdf:RDF>
      <cc:Work
         rdf:about="">
        <dc:format>image/svg+xml</dc:format>
        <dc:type
           rdf:resource="http://purl.org/dc/dcmitype/StillImage" />
        <dc:title></dc:title>
      </cc:Work>
    </rdf:RDF>
  </metadata>
  <g
     inkscape:label="Capa 1"
     inkscape:groupmode="layer"
     id="layer1"
     transform="translate(-86.520291,-79.815795)">
    <g
       id="flowRoot815-7-7-3"
       style="font-style:normal;font-variant:normal;font-weight:normal;font-stretch:normal;font-size:39.99953842px;line-height:1.25;font-family:Broadway;-inkscape-font-specification:'Broadway, Normal';font-variant-ligatures:normal;font-variant-caps:normal;font-variant-numeric:normal;font-feature-settings:normal;text-align:start;letter-spacing:0px;word-spacing:0px;writing-mode:lr-tb;text-anchor:start;fill:#000000;fill-opacity:1;stroke:none;stroke-width:1.00157475;stroke-linecap:round;stroke-linejoin:round;stroke-miterlimit:4;stroke-dasharray:none;stroke-opacity:1;paint-order:normal"
       transform="matrix(0.26451451,0,0,0.29236035,71.160449,7.5412613)"
       aria-label="Xumi">
      <path
         sodipodi:nodetypes="ccscccccsscccccccccsssccc"
         inkscape:connector-curvature="0"
         id="path858"
         d="m 79.368901,258.59704 0.410151,0.62499 c 2.630178,4.17964 -22.696846,-9.04857 -21.681232,-7.52515 1.015613,1.52342 29.675932,19.75808 31.681117,22.54451 h -13.90609 l -6.757734,-10.99597 c -2.109351,2.49997 -4.550729,5.68353 -7.324134,9.55067 -0.520827,0.71614 -0.911448,1.19791 -1.171862,1.4453 -0.260413,0.24739 -0.520827,0.37109 -0.781241,0.37109 -0.468745,0 -0.703117,-0.21484 -0.703117,-0.64452 0,-0.16927 0.04557,-0.33203 0.136717,-0.48828 0.104166,-0.16927 0.462235,-0.63801 1.074207,-1.40623 l 0.683586,-0.83984 7.304603,-9.19911 -9.355361,-14.45296 H 72.68929 l 5.917901,9.80458 c 1.393213,-1.70571 3.372356,-4.32938 5.937431,-7.87101 0.7552,-1.05467 1.243476,-1.6992 1.464827,-1.93357 0.234373,-0.24739 0.481766,-0.37109 0.742179,-0.37109 0.208331,0 0.390621,0.0716 0.546869,0.21484 0.156248,0.14323 0.234372,0.3125 0.234372,0.50781 0,0.24739 -0.110676,0.52083 -0.332027,0.8203 -0.208331,0.29948 -0.95051,1.23697 -2.226537,2.81247 z" />
    </g>
  </g>
</svg>
