<?xml version="1.0" encoding="UTF-8" standalone="no"?>
<!-- Created with Inkscape (http://www.inkscape.org/) -->

<svg
   xmlns:dc="http://purl.org/dc/elements/1.1/"
   xmlns:cc="http://creativecommons.org/ns#"
   xmlns:rdf="http://www.w3.org/1999/02/22-rdf-syntax-ns#"
   xmlns:svg="http://www.w3.org/2000/svg"
   xmlns="http://www.w3.org/2000/svg"
   xmlns:sodipodi="http://sodipodi.sourceforge.net/DTD/sodipodi-0.dtd"
   xmlns:inkscape="http://www.inkscape.org/namespaces/inkscape"
   width="44.345306mm"
   height="8.3595819mm"
   viewBox="0 0 44.345307 8.3595819"
   version="1.1"
   id="svg963"
   inkscape:version="0.92.4 (5da689c313, 2019-01-14)"
   sodipodi:docname="logo_xumi.svg">
  <defs
     id="defs957" />
  <sodipodi:namedview
     id="base"
     pagecolor="#ffffff"
     bordercolor="#666666"
     borderopacity="1.0"
     inkscape:pageopacity="0.0"
     inkscape:pageshadow="2"
     inkscape:zoom="2.8"
     inkscape:cx="88.600175"
     inkscape:cy="10.276082"
     inkscape:document-units="mm"
     inkscape:current-layer="layer1"
     showgrid="false"
     inkscape:window-width="1920"
     inkscape:window-height="1001"
     inkscape:window-x="-9"
     inkscape:window-y="-9"
     inkscape:window-maximized="1" />
  <metadata
     id="metadata960">
    <rdf:RDF>
      <cc:Work
         rdf:about="">
        <dc:format>image/svg+xml</dc:format>
        <dc:type
           rdf:resource="http://purl.org/dc/dcmitype/StillImage" />
        <dc:title />
      </cc:Work>
    </rdf:RDF>
  </metadata>
  <g
     inkscape:label="Capa 1"
     inkscape:groupmode="layer"
     id="layer1"
     transform="translate(-42.130547,-26.72497)">
    <g
       aria-label="Xumi"
       transform="matrix(0.26451451,0,0,0.29236035,32.705497,-45.218378)"
       style="font-style:normal;font-variant:normal;font-weight:normal;font-stretch:normal;font-size:39.99953842px;line-height:1.25;font-family:Broadway;-inkscape-font-specification:'Broadway, Normal';font-variant-ligatures:normal;font-variant-caps:normal;font-variant-numeric:normal;font-feature-settings:normal;text-align:start;letter-spacing:0px;word-spacing:0px;writing-mode:lr-tb;text-anchor:start;fill:#000000;fill-opacity:1;stroke:none;stroke-width:1.00157475;stroke-linecap:round;stroke-linejoin:round;stroke-miterlimit:4;stroke-dasharray:none;stroke-opacity:1;paint-order:normal"
       id="flowRoot815-7-7-3">
      <path
         d="m 172.1022,246.07765 q 5.15619,0 5.15619,2.69528 0,1.30858 -1.36717,2.05076 -1.34764,0.72265 -3.80855,0.72265 -4.90228,0 -4.90228,-2.77341 0,-2.65622 4.92181,-2.69528 z"
         id="path870"
         inkscape:connector-curvature="0" />
      <path
         d="m 177.16074,252.91351 v 0.5664 l -0.0391,3.04684 -0.0391,4.72651 -0.0586,7.18742 0.0781,4.04292 0.0391,1.75779 h -10.03895 l 0.0977,-7.18742 9.88265,-5.80071 -9.86315,-3.88667 -0.0586,-3.7109 0.0195,-0.74218 z"
         id="path868"
         inkscape:connector-curvature="0"
         sodipodi:nodetypes="cccccccccccccc" />
      <path
         d="m 146.24313,256.07754 q 2.53903,-1.95311 4.72651,-2.81247 2.207,-0.8789 4.64838,-0.8789 4.4726,0 6.2304,2.87106 0.5078,0.85937 0.70311,1.99217 0.19531,1.11327 0.19531,3.32027 l -0.0781,5.15619 v 1.21093 l 0.0976,6.50383 0.0195,0.80077 h -10.01942 l 0.0781,-6.1718 0.0977,-6.21087 -0.0195,-2.5195 q -0.0195,-1.3867 0,-1.62108 0.0195,-1.54295 -0.33203,-2.12888 -0.35156,-0.58593 -1.26952,-0.58593 -0.97655,0 -2.14841,0.5664 -1.15233,0.5664 -2.49997,1.71873 0.0977,0.76171 0.0977,2.18748 l -0.0391,4.88275 -0.0391,5.48822 q 0,2.42185 0.0977,4.39448 h -9.99989 l 0.0391,-4.25776 0.0586,-9.17958 q 0,-4.5312 -0.11719,-4.99995 -0.21484,-0.83983 -1.40623,-0.83983 -0.89843,0 -2.03123,0.5664 -1.11327,0.54687 -2.48044,1.67967 l -0.0781,8.26162 0.0976,8.76943 H 120.8528 v -0.78124 l 0.0391,-3.55465 0.0195,-4.84369 0.0195,-4.68745 -0.0781,-7.46085 h 9.99988 v 2.73434 q 2.18747,-1.6406 4.35542,-2.44137 2.18747,-0.82031 4.35542,-0.82031 3.26168,0 5.25384,1.64061 0.80077,0.64452 1.42577,2.05076 z"
         id="path866"
         inkscape:connector-curvature="0" />
      <path
         d="m 116.31183,252.91351 -0.0586,15.35139 0.0586,5.97649 h -9.98035 v -2.75387 q -2.48044,1.6992 -4.5312,2.44137 -2.031223,0.74218 -4.25776,0.74218 -4.081984,0 -5.917901,-2.42184 -0.683586,-0.89843 -0.95702,-2.03123 -0.253903,-1.15233 -0.253903,-3.26168 l 0.03906,-4.57026 0.01953,-3.04684 -0.09766,-6.42571 h 9.980354 l -0.0977,9.80458 0.0195,3.71089 0.0195,2.49997 q 0,2.24607 0.27344,2.69528 0.33203,0.50781 1.24998,0.50781 0.93749,0 1.93358,-0.48828 1.01561,-0.48827 2.61715,-1.73826 l 0.0195,-2.55856 0.0391,-6.97258 -0.11719,-6.85539 v -0.60546 z"
         id="path864"
         inkscape:connector-curvature="0" />
      <path
         d="m 79.368901,258.59704 0.410151,0.62499 c 2.630178,4.17964 -22.696846,-9.04857 -21.681232,-7.52515 1.015613,1.52342 29.675932,19.75808 31.681117,22.54451 h -13.90609 l -6.757734,-10.99597 c -2.109351,2.49997 -4.550729,5.68353 -7.324134,9.55067 -0.520827,0.71614 -0.911448,1.19791 -1.171862,1.4453 -0.260413,0.24739 -0.520827,0.37109 -0.781241,0.37109 -0.468745,0 -0.703117,-0.21484 -0.703117,-0.64452 0,-0.16927 0.04557,-0.33203 0.136717,-0.48828 0.104166,-0.16927 0.462235,-0.63801 1.074207,-1.40623 l 0.683586,-0.83984 7.304603,-9.19911 -9.355361,-14.45296 H 72.68929 l 5.917901,9.80458 c 1.393213,-1.70571 3.372356,-4.32938 5.937431,-7.87101 0.7552,-1.05467 1.243476,-1.6992 1.464827,-1.93357 0.234373,-0.24739 0.481766,-0.37109 0.742179,-0.37109 0.208331,0 0.390621,0.0716 0.546869,0.21484 0.156248,0.14323 0.234372,0.3125 0.234372,0.50781 0,0.24739 -0.110676,0.52083 -0.332027,0.8203 -0.208331,0.29948 -0.95051,1.23697 -2.226537,2.81247 z"
         id="path858"
         inkscape:connector-curvature="0"
         sodipodi:nodetypes="ccscccccsscccccccccsssccc" />
    </g>
    <path
       style="fill:#000000;fill-opacity:1;stroke:none;stroke-width:1.3354075;stroke-miterlimit:4;stroke-dasharray:none;stroke-opacity:0"
       d="m 81.231439,30.089704 h 5.244414 l -0.47838,1.64183 -4.766034,0.0118 z"
       id="rect855-6-2"
       inkscape:connector-curvature="0"
       sodipodi:nodetypes="ccccc" />
    <path
       style="fill:#000000;fill-opacity:1;stroke:none;stroke-width:1.3354075;stroke-miterlimit:4;stroke-dasharray:none;stroke-opacity:0"
       d="m 47.398415,30.089704 h -4.754074 l -0.513794,1.64183 5.443278,0.0118 0.51365,-0.80253 z"
       id="rect855-1-3-7"
       inkscape:connector-curvature="0"
       sodipodi:nodetypes="cccccc" />
  </g>
</svg>
